#!OML:ASF Y:\EmotionMaleHayes\Project 1\Capture day 1\Session 1\Male1.ASF
:FULLY-SPECIFIED
:DEGREES
346
root -21.0896 16.04 1.15426 35.5376 83.8028 35.1357
lowerback 11.181 4.25665 -4.99179
upperback 2.74541 5.10476 -2.72196
thorax -3.55164 2.61917 -0.769812
lowerneck -20.9182 0.270122 1.59371
upperneck 17.9242 0.0374858 -0.557965
head 9.07433 0.0804604 -0.445424
rclavicle -5.28767e-014 -2.78299e-015
rhumerus -33.7474 10.6888 -92.4933
rradius 42.5468
rwrist -6.38183
rhand -11.4148 -31.9743
rfingers 7.12502
rthumb 14.6209 -61.4389
lclavicle -5.28767e-014 -2.78299e-015
lhumerus -36.3061 10.34 77.9105
lradius 17.4607
lwrist -29.391
lhand -8.15115 -24.2157
lfingers 7.12502
lthumb 17.7634 4.99292
rfemur 10.7572 3.71384 12.3943
rtibia 49.3882
rfoot 1.18034 -7.10239
rtoes 18.6868
lfemur -23.2611 2.73119 -22.8789
ltibia 38.2096
lfoot -16.8805 8.06726
ltoes -16.0201
347
root -20.9264 16.0738 1.13498 39.0053 83.0581 38.6627
lowerback 11.1328 4.34245 -5.92411
upperback 2.71801 5.11462 -2.88606
thorax -3.61626 2.63392 -0.428578
lowerneck -20.8087 0.305172 1.65077
upperneck 17.7629 0.102598 -0.712122
head 8.99999 0.0960119 -0.49853
rclavicle 1.37161e-014 -2.18663e-014
rhumerus -34.2784 10.2479 -92.4684
rradius 42.1181
rwrist -6.05745
rhand -11.1446 -31.7491
rfingers 7.12502
rthumb 14.8812 -61.1946
lclavicle 1.37161e-014 -2.18663e-014
lhumerus -35.4432 9.38155 78.6624
lradius 17.7533
lwrist -28.6926
lhand -8.68886 -24.3015
lfingers 7.12502
lthumb 17.2459 4.95326
rfemur 8.73036 3.7311 11.4071
rtibia 52.2814
rfoot 0.795842 -6.20824
rtoes 16.8377
lfemur -22.0366 2.71962 -23.9145
ltibia 37.3452
lfoot -17.2156 8.30443
ltoes -16.0739
348
root -20.7531 16.1161 1.11767 47.2906 82.808 47.2383
lowerback 11.264 4.12053 -6.94128
upperback 2.815 4.70649 -3.05484
thorax -3.63179 2.44387 0.010464
lowerneck -21.1463 0.438701 1.74444
upperneck 17.9575 0.253996 -0.727328
head 9.12902 0.171753 -0.498929
rclavicle 2.82274e-014 -5.64548e-014
rhumerus -34.7389 9.95945 -92.4423
rradius 41.5429
rwrist -5.7685
rhand -11.2118 -31.5992
rfingers 7.12502
rthumb 14.8165 -61.0495
lclavicle 2.82274e-014 -5.64548e-014
lhumerus -34.5565 8.6971 79.2165
lradius 17.8921
lwrist -28.4614
lhand -9.93632 -25.2277
lfingers 7.12502
lthumb 16.045 4.12796
rfemur 7.39739 2.99649 10.2559
rtibia 54.4929
rfoot 0.289822 -5.1243
rtoes 15.756
lfemur -20.547 2.04067 -25.2102
ltibia 36.4083
lfoot -17.3931 8.29715
ltoes -16.2896
349
root -20.5726 16.1634 1.1024 57.3529 82.7246 57.6721
lowerback 11.3979 3.68527 -7.82771
upperback 3.00601 4.04115 -3.18924
thorax -3.51275 2.12237 0.460156
lowerneck -21.4612 0.644952 1.7902
upperneck 18.0283 0.500561 -0.662861
head 9.21254 0.296447 -0.449942
rclavicle -2.70347e-014 -7.55382e-015
rhumerus -34.9495 9.56605 -92.3689
rradius 40.7099
rwrist -5.32576
rhand -11.2049 -31.5562
rfingers 7.12502
rthumb 14.8231 -61.0061
lclavicle -2.70347e-014 -7.55382e-015
lhumerus -33.6412 7.76444 79.8719
lradius 18.231
lwrist -27.6399
lhand -10.4573 -25.6121
lfingers 7.12502
lthumb 15.5432 3.78328
rfemur 6.48705 1.88687 9.21658
rtibia 56.1692
rfoot -0.132315 -3.99448
rtoes 15.3532
lfemur -18.9042 1.0794 -26.4745
ltibia 35.4322
lfoot -17.6013 8.14677
ltoes -16.5198
350
root -20.4065 16.215 1.08036 60.6782 82.3743 61.3075
lowerback 11.6112 3.50679 -8.28713
upperback 3.10541 3.7429 -3.32963
thorax -3.52048 1.98127 0.60326
lowerneck -21.4208 0.853252 1.88281
upperneck 17.7374 0.753274 -0.660348
head 9.10808 0.418568 -0.429006
rclavicle 2.98177e-016 -1.86858e-014
rhumerus -35.2722 8.88213 -92.2791
rradius 40.0685
rwrist -4.79984
rhand -10.9965 -31.7968
rfingers 7.12502
rthumb 15.0238 -61.2317
lclavicle 2.98177e-016 -1.86858e-014
lhumerus -32.7727 6.08057 80.7713
lradius 18.7877
lwrist -26.1775
lhand -10.7162 -25.5854
lfingers 7.12502
lthumb 15.2939 3.82911
rfemur 5.01169 1.37006 8.51881
rtibia 58.1589
rfoot -0.467777 -2.64609
rtoes 16.5012
lfemur -17.2766 0.704763 -27.3196
ltibia 34.3468
lfoot -17.8503 8.18951
ltoes -16.6419
351
root -20.2802 16.2302 1.0615 47.5698 80.3188 47.1642
lowerback 10.4903 4.31118 -9.2085
upperback 2.77206 4.79298 -3.44132
thorax -3.39314 2.50155 0.886681
lowerneck -21.6257 0.926457 1.94364
upperneck 17.6649 0.868295 -0.845497
head 9.12145 0.453237 -0.486482
rclavicle 3.76697e-014 -1.98785e-014
rhumerus -35.4341 8.28037 -92.0333
rradius 39.4033
rwrist -4.25307
rhand -10.9496 -31.5381
rfingers 7.12502
rthumb 15.069 -60.9697
lclavicle 3.76697e-014 -1.98785e-014
lhumerus -31.7902 4.54116 81.7104
lradius 19.4169
lwrist -24.6457
lhand -10.9481 -25.6003
lfingers 7.12502
lthumb 15.0705 3.83114
rfemur 0.241878 3.37274 7.99943
rtibia 61.5702
rfoot -0.65496 -1.53704
rtoes 18.2416
lfemur -17.2518 2.73155 -27.7411
ltibia 33.2161
lfoot -18.0934 8.87989
ltoes -16.247
352
root -20.0739 16.3105 1.05378 68.5975 81.7638 69.4177
lowerback 11.4158 3.10193 -9.43568
upperback 3.33906 3.13466 -3.46977
thorax -3.16395 1.67897 1.20245
lowerneck -21.5504 1.00263 2.03979
upperneck 17.4633 0.936053 -0.822837
head 9.03982 0.492894 -0.485087
rclavicle 3.77691e-015 -4.21423e-014
rhumerus -35.7139 7.51141 -91.8437
rradius 38.8142
rwrist -3.76346
rhand -10.9405 -31.4
rfingers 7.12502
rthumb 15.0778 -60.8309
lclavicle 3.77691e-015 -4.21423e-014
lhumerus -30.8435 3.06517 82.3592
lradius 19.9172
lwrist -23.5834
lhand -11.2689 -25.4867
lfingers 7.12502
lthumb 14.7614 3.96765
rfemur 1.567 -0.00427987 7.40112
rtibia 61.6647
rfoot -1.41938 -1.2506
rtoes 18.3248
lfemur -14.5115 -0.129637 -28.855
ltibia 32.165
lfoot -18.2245 8.01366
ltoes -17.0796
353
root -19.9292 16.3575 1.03908 61.2213 81.3549 61.9064
lowerback 11.4591 3.36099 -9.41446
upperback 3.12451 3.44458 -3.55331
thorax -3.43771 1.84251 1.0439
lowerneck -21.5307 1.14369 2.15176
upperneck 17.4495 1.05596 -0.647434
head 9.03331 0.576822 -0.426343
rclavicle -1.68967e-015 9.93923e-015
rhumerus -36.3159 6.9426 -91.934
rradius 38.4624
rwrist -3.39168
rhand -10.7893 -32.1209
rfingers 7.12502
rthumb 15.2235 -61.5408
lclavicle -1.68967e-015 9.93923e-015
lhumerus -30.1448 1.6171 82.7246
lradius 20.4547
lwrist -22.5907
lhand -11.1296 -24.8737
lfingers 7.12502
lthumb 14.8956 4.57073
rfemur -1.1854 0.681636 7.7164
rtibia 63.6005
rfoot -1.54876 -0.624718
rtoes 17.1602
lfemur -13.4286 0.718978 -28.7211
ltibia 31.0048
lfoot -18.4634 8.40993
ltoes -17.5024
354
root -19.7562 16.4112 1.03151 63.5113 81.6226 64.4567
lowerback 11.5801 3.11847 -9.47839
upperback 3.20406 3.11256 -3.42876
thorax -3.39996 1.6759 1.25864
lowerneck -21.4901 1.2746 2.26059
upperneck 17.3521 1.19372 -0.613655
head 8.9952 0.651888 -0.413625
rclavicle -2.98177e-016 1.59028e-014
rhumerus -36.6065 6.20352 -91.5706
rradius 37.6595
rwrist -3.3719
rhand -10.4133 -31.2586
rfingers 7.12502
rthumb 15.5857 -60.6507
lclavicle -2.98177e-016 1.59028e-014
lhumerus -29.3524 0.364166 83.2383
lradius 20.9887
lwrist -21.6164
lhand -7.27972 -21.2292
lfingers 7.12502
lthumb 18.6018 7.90138
rfemur -2.55176 -0.00819799 7.98102
rtibia 64.6521
rfoot -2.08392 -0.319582
rtoes 15.674
lfemur -11.8305 0.299618 -28.7443
ltibia 29.9153
lfoot -18.7303 8.57424
ltoes -18.434
355
root -19.5854 16.4636 1.02029 65.6823 81.4944 66.759
lowerback 11.605 2.96216 -9.82605
upperback 3.22834 2.86827 -3.42898
thorax -3.37886 1.55716 1.4873
lowerneck -21.4084 1.41232 2.56089
upperneck 17.1841 1.3263 -0.786278
head 8.92849 0.713526 -0.504102
rclavicle 3.47873e-015 -4.37326e-015
rhumerus -36.9164 5.56409 -91.3068
rradius 36.8848
rwrist -3.01219
rhand -10.4882 -30.7797
rfingers 7.12502
rthumb 15.5135 -60.1773
lclavicle 3.47873e-015 -4.37326e-015
lhumerus -28.475 -0.825406 83.651
lradius 21.3818
lwrist -20.8015
lhand -10.0899 -23.4536
lfingers 7.12502
lthumb 15.8971 5.91386
rfemur -4.15595 -0.605588 7.8149
rtibia 65.6279
rfoot -2.46744 -0.0774594
rtoes 15.0848
lfemur -10.2859 -0.00333585 -29.1864
ltibia 28.6086
lfoot -18.8479 8.74378
ltoes -19.3625
356
root -19.4193 16.5194 0.999391 67.4838 81.3171 68.6434
lowerback 11.69 2.77358 -10.1708
upperback 3.2737 2.57607 -3.37997
thorax -3.36241 1.41384 1.77167
lowerneck -21.7142 1.57488 2.58568
upperneck 17.2112 1.55071 -0.879509
head 8.99596 0.807854 -0.507757
rclavicle 8.05078e-015 -1.15295e-014
rhumerus -37.2614 5.31969 -91.0146
rradius 36.393
rwrist -2.65286
rhand -10.6584 -31.0094
rfingers 7.12502
rthumb 15.3495 -60.4197
lclavicle 8.05078e-015 -1.15295e-014
lhumerus -27.5459 -1.54335 84.0002
lradius 21.8078
lwrist -20.2393
lhand -11.5771 -24.5239
lfingers 7.12502
lthumb 14.4645 4.95199
rfemur -5.83968 -1.22398 7.57725
rtibia 66.4008
rfoot -2.93087 0.332092
rtoes 14.839
lfemur -8.77722 -0.233296 -29.6868
ltibia 27.1919
lfoot -18.8234 8.71859
ltoes -19.1002
